<?xml version="1.0" encoding="utf-8"?>
<!-- Generator: Adobe Illustrator 16.0.2, SVG Export Plug-In . SVG Version: 6.00 Build 0)  -->
<!DOCTYPE svg PUBLIC "-//W3C//DTD SVG 1.1//EN" "http://www.w3.org/Graphics/SVG/1.1/DTD/svg11.dtd">
<svg version="1.1" xmlns="http://www.w3.org/2000/svg" xmlns:xlink="http://www.w3.org/1999/xlink" x="0px" y="0px" width="1920px"
	 height="2957.68px" viewBox="0 0 1920 2957.68" enable-background="new 0 0 1920 2957.68" xml:space="preserve">
<g id="Layer_1">
	
		<image overflow="visible" width="1051" height="4000" xlink:href="../Vistaprevia.jpg"  transform="matrix(1.8257 0 0 1.8257 -4013.4121 -1790.5562)">
	</image>
</g>
<g id="Wave_2">
	<path fill="#22A0A8" d="M-2002.412-565.557c0,0,229.813-174,637.813-180s636.3-273.685,984.229-741.591H-83.6V330.489h-1920
		L-2002.412-565.557z"/>
</g>
<g id="Wave_1">
	<path fill="#16712B" d="M1920,177.463v19.5c0,0-224.949,48-838.42-66c0,0-398.06-104.109-1081.58-101.09v-17.1l1.181-0.33
		c0,0,796.819-66,1357.819,106C1359,118.443,1598.971,186.463,1920,177.463z"/>
	<path fill="#16712B" d="M-2079.6,229.043l-15,4.21v-4.02C-2089.609,229.174-2084.609,229.113-2079.6,229.043z"/>
	<linearGradient id="SVGID_1_" gradientUnits="userSpaceOnUse" x1="960.001" y1="2957.6787" x2="960.0009" y2="52.4941">
		<stop  offset="0.1362" style="stop-color:#12491D"/>
		<stop  offset="0.449" style="stop-color:#134B1E"/>
		<stop  offset="0.6519" style="stop-color:#16531F"/>
		<stop  offset="0.8235" style="stop-color:#1B6222"/>
		<stop  offset="0.9769" style="stop-color:#227825"/>
		<stop  offset="1" style="stop-color:#237D26"/>
	</linearGradient>
	<path fill="url(#SVGID_1_)" d="M1920,229.233v2675.21c-482.96,119.78-834.17,0-834.17,0c-618.06-207.25-1085.83,0-1085.83,0
		V330.493l1.19-249.27c-0.4,0-0.79,0-1.19,0.01v-24.71c94.4-7.99,335.66-12.51,790.42,72
		C790.42,128.523,1207.15,237.514,1920,229.233z"/>
	<linearGradient id="SVGID_2_" gradientUnits="userSpaceOnUse" x1="-1043.5996" y1="5512.2432" x2="-1043.5996" y2="4197.6631">
		<stop  offset="0.1362" style="stop-color:#12491D"/>
		<stop  offset="0.449" style="stop-color:#134B1E"/>
		<stop  offset="0.6519" style="stop-color:#16531F"/>
		<stop  offset="0.8235" style="stop-color:#1B6222"/>
		<stop  offset="0.9769" style="stop-color:#227825"/>
		<stop  offset="1" style="stop-color:#237D26"/>
	</linearGradient>
	<path fill="url(#SVGID_2_)" d="M-84.189,4251.153v1261.09h-1918.82V4250.764c160.76-39.82,306.891-53.101,430.33-53.101
		c247.16,0,403.25,53.24,403.25,53.24C-564.07,4453.894-102.891,4259.243-84.189,4251.153z"/>
	<path fill="#16712B" d="M-1734.648,2670.654"/>
	<rect y="-113.427" fill="none" width="1920" height="1697.66"/>
	<rect x="-2003.01" y="4197.663" fill="none" width="1918.82" height="1314.58"/>
</g>
<g id="South_Publicity">
	<text transform="matrix(1 0 0 1 -63.0039 -1579.939)" fill="#B3C8DA" font-family="'Cuprum-BoldItalic'" font-size="80">South Publicity</text>
</g>
<g id="Header">
	<path fill="#122C1F" d="M-84.194-1790.557v61.61h-1594.378c-41.998-1.496-93.572,42.788-96.612,85.62
		c-3.343,47.104-38.19,86.88-85.29,86.88h-142.529v-234.11H-84.194z"/>
</g>
</svg>
