<?xml version="1.0" encoding="utf-8"?>
<!-- Generator: Adobe Illustrator 16.0.2, SVG Export Plug-In . SVG Version: 6.00 Build 0)  -->
<!DOCTYPE svg PUBLIC "-//W3C//DTD SVG 1.1//EN" "http://www.w3.org/Graphics/SVG/1.1/DTD/svg11.dtd">
<svg version="1.1" xmlns="http://www.w3.org/2000/svg" xmlns:xlink="http://www.w3.org/1999/xlink" x="0px" y="0px"
	 width="1918.82px" height="1314.58px" viewBox="0 0 1918.82 1314.58" enable-background="new 0 0 1918.82 1314.58"
	 xml:space="preserve">
<g id="Layer_1">
	
		<image overflow="visible" width="1051" height="4000" xlink:href="../Vistaprevia.jpg"  transform="matrix(1.8257 0 0 1.8257 -2010.4023 -5988.2192)">
	</image>
</g>
<g id="Wave_2">
	<path fill="#22A0A8" d="M0.598-4763.22c0,0,229.813-174,637.813-180s636.3-273.685,984.229-741.591h296.771v1817.637h-1920
		L0.598-4763.22z"/>
</g>
<g id="Wave_1">
	<path fill="#16712B" d="M3923.01-4020.2v19.5c0,0-224.949,48-838.42-66c0,0-398.06-104.109-1081.58-101.09v-17.1l1.181-0.33
		c0,0,796.819-66,1357.819,106C3362.01-4079.22,3601.98-4011.2,3923.01-4020.2z"/>
	<path fill="#16712B" d="M-76.59-3968.62l-15,4.21v-4.02C-86.6-3968.489-81.6-3968.55-76.59-3968.62z"/>
	<linearGradient id="SVGID_1_" gradientUnits="userSpaceOnUse" x1="2963.0107" y1="-1239.9844" x2="2963.0105" y2="-4145.1689">
		<stop  offset="0.1362" style="stop-color:#12491D"/>
		<stop  offset="0.449" style="stop-color:#134B1E"/>
		<stop  offset="0.6519" style="stop-color:#16531F"/>
		<stop  offset="0.8235" style="stop-color:#1B6222"/>
		<stop  offset="0.9769" style="stop-color:#227825"/>
		<stop  offset="1" style="stop-color:#237D26"/>
	</linearGradient>
	<path fill="url(#SVGID_1_)" d="M3923.01-3968.43v2675.21c-482.96,119.78-834.17,0-834.17,0c-618.06-207.25-1085.83,0-1085.83,0
		v-2573.95l1.19-249.27c-0.4,0-0.79,0-1.19,0.01v-24.71c94.4-7.99,335.66-12.51,790.42,72
		C2793.43-4069.14,3210.16-3960.149,3923.01-3968.43z"/>
	<linearGradient id="SVGID_2_" gradientUnits="userSpaceOnUse" x1="959.4102" y1="1314.5801" x2="959.4101" y2="0">
		<stop  offset="0.1362" style="stop-color:#12491D"/>
		<stop  offset="0.449" style="stop-color:#134B1E"/>
		<stop  offset="0.6519" style="stop-color:#16531F"/>
		<stop  offset="0.8235" style="stop-color:#1B6222"/>
		<stop  offset="0.9769" style="stop-color:#227825"/>
		<stop  offset="1" style="stop-color:#237D26"/>
	</linearGradient>
	<path fill="url(#SVGID_2_)" d="M1918.82,53.49v1261.09H0V53.101C160.76,13.28,306.891,0,430.33,0
		c247.16,0,403.25,53.24,403.25,53.24C1438.939,256.23,1900.119,61.58,1918.82,53.49z"/>
	<path fill="#16712B" d="M268.361-1527.009"/>
	<rect x="2003.01" y="-4311.09" fill="none" width="1920" height="1697.66"/>
	<rect fill="none" width="1918.82" height="1314.58"/>
</g>
<g id="South_Publicity">
	<text transform="matrix(1 0 0 1 1940.0059 -5777.6021)" fill="#B3C8DA" font-family="'Cuprum-BoldItalic'" font-size="80">South Publicity</text>
</g>
<g id="Header">
	<path fill="#122C1F" d="M1918.815-5988.22v61.61H324.438c-41.998-1.496-93.572,42.788-96.612,85.62
		c-3.343,47.104-38.19,86.88-85.29,86.88H0.006v-234.11H1918.815z"/>
</g>
</svg>
